<svg xmlns="http://www.w3.org/2000/svg" width="146.431" height="164" viewBox="0 0 146.431 164"><path d="M174.61,14.2a3.569,3.569,0,0,0-2.631-1.159H32.678a3.564,3.564,0,0,0-3.551,3.883l12.55,140.566a3.571,3.571,0,0,0,2.574,3.112l57.079,16.3a3.589,3.589,0,0,0,1.954,0l57.129-16.3a3.571,3.571,0,0,0,2.574-3.112L175.53,16.926A3.573,3.573,0,0,0,174.61,14.2ZM55.981,109.319l24.957,6.924V45.13H95.2v92.7L55.981,126.949Zm92.888-24.971-3.758,43.674-35.652,9.8v-16.4l24.065-6.613.891-13.37-24.957,4.3V45.13h42.783l-1.23,14.261H123.72V87.913Z" transform="translate(-29.113 -13.043)" fill="#d3b200"/></svg>