<svg xmlns="http://www.w3.org/2000/svg" width="154.905" height="154.013" viewBox="0 0 154.905 154.013"><g transform="translate(0.182 -0.773)"><path d="M149.245,17.089l-31.9-15.358a9.643,9.643,0,0,0-11,1.87L1.922,98.809a6.45,6.45,0,0,0,.007,9.539l8.53,7.754a6.45,6.45,0,0,0,8.238.366l125.749-95.4a6.406,6.406,0,0,1,10.278,5.1v-.37A9.676,9.676,0,0,0,149.245,17.089Z" transform="translate(0 -0.001)" fill="#0065a9"/><g transform="translate(-0.182 37.78)"><path d="M149.245,173.135l-31.9,15.358a9.643,9.643,0,0,1-11-1.87L1.922,91.414a6.451,6.451,0,0,1,.007-9.54l8.53-7.754a6.451,6.451,0,0,1,8.238-.366l125.749,95.4a6.406,6.406,0,0,0,10.278-5.1v.37A9.676,9.676,0,0,1,149.245,173.135Z" transform="translate(0.182 -72.443)" fill="#007acc"/></g><g transform="translate(106.345 0.773)"><path d="M217.128,153.832a9.647,9.647,0,0,1-11-1.873,5.668,5.668,0,0,0,9.676-4.008V7.607A5.668,5.668,0,0,0,206.125,3.6a9.648,9.648,0,0,1,11-1.873l31.892,15.337a9.676,9.676,0,0,1,5.482,8.72V129.776a9.676,9.676,0,0,1-5.482,8.72Z" transform="translate(-206.125 -0.773)" fill="#1f9cf0"/></g><g transform="translate(-0.182 0.773)" opacity="0.25" style="mix-blend-mode:overlay;isolation:isolate"><path d="M109.6,154.128a9.635,9.635,0,0,0,7.68-.3L149.15,138.5a9.676,9.676,0,0,0,5.479-8.72V25.783a9.676,9.676,0,0,0-5.479-8.72L117.277,1.726a9.634,9.634,0,0,0-11,1.873L45.263,59.266,18.685,39.092a6.444,6.444,0,0,0-8.233.366L1.928,47.212a6.453,6.453,0,0,0-.007,9.54L24.97,77.779,1.921,98.808a6.453,6.453,0,0,0,.007,9.539l8.524,7.754a6.444,6.444,0,0,0,8.233.366L45.263,96.293,106.28,151.96A9.627,9.627,0,0,0,109.6,154.128ZM115.95,42.636l-46.3,35.144,46.3,35.144Z" transform="translate(0.182 -0.773)" fill="#fff" fill-rule="evenodd"/></g></g></svg>