<svg xmlns="http://www.w3.org/2000/svg" xmlns:xlink="http://www.w3.org/1999/xlink" width="182" height="182" viewBox="0 0 182 182"><defs><clipPath id="a"><circle cx="91" cy="91" r="91" transform="translate(661.323 554.333)" fill="#fff" stroke="#707070" stroke-width="1"/></clipPath></defs><g transform="translate(-661.323 -554.333)" clip-path="url(#a)"><g transform="translate(661.079 554.091)"><path d="M21.321,129.479a78.286,78.286,0,0,0,44.114,70.444L28.1,97.624a77.975,77.975,0,0,0-6.777,31.855Z" transform="translate(-8.352 -38.24)" fill="#464342"/><path d="M160.723,95.641c0-9.673-3.475-16.373-6.455-21.587-3.968-6.447-7.687-11.908-7.687-18.355,0-7.2,5.457-13.893,13.144-13.893.347,0,.676.043,1.014.063A78.255,78.255,0,0,0,42.485,56.6c1.836.055,3.567.094,5.037.094,8.187,0,20.86-.993,20.86-.993,4.219-.249,4.717,5.949.5,6.447,0,0-4.24.5-8.959.746l28.5,84.782L105.559,96.3,93.364,62.892c-4.215-.247-8.208-.746-8.208-.746-4.218-.247-3.723-6.7.494-6.447,0,0,12.926.993,20.617.993,8.186,0,20.86-.993,20.86-.993,4.222-.249,4.718,5.949.5,6.447,0,0-4.249.5-8.959.746l28.286,84.14,7.807-26.089C158.148,110.117,160.723,102.341,160.723,95.641Z" transform="translate(-16.642 -8.352)" fill="#464342"/><path d="M137.131,161.247l-23.484,68.241a78.309,78.309,0,0,0,48.1-1.248,6.871,6.871,0,0,1-.557-1.078Z" transform="translate(-44.516 -63.161)" fill="#464342"/><path d="M244.015,88.256a60.059,60.059,0,0,1,.527,8.049c0,7.943-1.483,16.872-5.952,28.036l-23.909,69.126A78.286,78.286,0,0,0,244.015,88.256Z" transform="translate(-84.092 -34.571)" fill="#464342"/><path d="M91.242,0a91.241,91.241,0,1,0,91.246,91.239A91.344,91.344,0,0,0,91.242,0Zm0,178.3A87.058,87.058,0,1,1,178.3,91.239,87.159,87.159,0,0,1,91.242,178.3Z" transform="translate(0 0)" fill="#464342"/></g></g></svg>