
<svg xmlns="http://www.w3.org/2000/svg" width="16" height="16.323" viewBox="0 0 16 16.323">
  <g id="log" transform="translate(-0.009 0)">
    <path id="パス_1241" data-name="パス 1241" d="M91.9,56.508a1.261,1.261,0,0,0,1.261-1.261V50.251a1.261,1.261,0,0,0-2.523,0v4.995A1.261,1.261,0,0,0,91.9,56.508Z" transform="translate(-83.895 -48.99)" fill="#fff"/>
    <path id="パス_1242" data-name="パス 1242" d="M57.917,61.172a1.353,1.353,0,0,0-1.911.231,1.381,1.381,0,0,0,.229,1.928,5.352,5.352,0,0,1,1.757,5.926,5.264,5.264,0,0,1-9.983.018,5.352,5.352,0,0,1,1.736-5.933,1.387,1.387,0,0,0,.529-1.087h0a1.375,1.375,0,0,0-.769-1.236,1.353,1.353,0,0,0-1.438.159A8.081,8.081,0,0,0,53.121,75.6a8,8,0,0,0,7.462-5.5,8.109,8.109,0,0,0-2.663-8.926Z" transform="translate(-44.99 -59.276)" fill="#fff"/>
  </g>
</svg>