<svg xmlns="http://www.w3.org/2000/svg" width="15" height="20" viewBox="0 0 15 20">
  <g id="グループ_1972" data-name="グループ 1972" transform="translate(-5.999 -4.002)">
    <path id="ic_autorenew_24px" d="M11.5,5.545V8.273l3.75-3.636L11.5,1V3.727A7.387,7.387,0,0,0,4,11a7.051,7.051,0,0,0,1.162,3.873l1.369-1.327A5.209,5.209,0,0,1,5.875,11,5.546,5.546,0,0,1,11.5,5.545Zm6.338,1.582L16.469,8.455A5.34,5.34,0,0,1,17.125,11,5.546,5.546,0,0,1,11.5,16.455V13.727L7.75,17.364,11.5,21V18.273A7.387,7.387,0,0,0,19,11,7.051,7.051,0,0,0,17.837,7.127Z" transform="translate(1.999 3.002)"/>
  </g>
</svg>